<?xml version="1.0" encoding="utf-8"?>
<!-- Generator: Adobe Illustrator 22.0.1, SVG Export Plug-In . SVG Version: 6.00 Build 0)  -->
<svg version="1.1" id="Слой_2_1_" xmlns="http://www.w3.org/2000/svg" xmlns:xlink="http://www.w3.org/1999/xlink" x="0px"
	 y="0px" viewBox="0 0 100 100" style="enable-background:new 0 0 100 100;" xml:space="preserve">
<style type="text/css">
	.st0{fill:url(#SVGID_1_);}
	.st1{fill:url(#SVGID_2_);}
	.st2{fill:url(#SVGID_3_);}
	.st3{fill:url(#SVGID_4_);}
	.st4{fill:url(#SVGID_5_);}
	.st5{fill:url(#SVGID_6_);}
	.st6{fill:url(#SVGID_7_);}
	.st7{fill:url(#SVGID_8_);}
	.st8{fill:url(#SVGID_9_);}
</style>
<title>Монтажная область 20</title>
<linearGradient id="SVGID_1_" gradientUnits="userSpaceOnUse" x1="23.0013" y1="50.5" x2="76.9973" y2="50.5">
	<stop  offset="0" style="stop-color:#554764"/>
	<stop  offset="1" style="stop-color:#ADADAD"/>
</linearGradient>
<path class="st0" d="M76.9,49.9c-0.2-0.6-0.8-0.9-1.4-0.9H58.2l10-40.6c0.2-0.8-0.3-1.6-1.1-1.8c-0.5-0.1-1,0-1.4,0.4L23.4,49.4
	c-0.6,0.6-0.6,1.5,0,2.1c0.3,0.3,0.7,0.4,1.1,0.4h17.3l-10,40.6c-0.2,0.8,0.3,1.6,1.1,1.8c0.5,0.1,1,0,1.4-0.4l42.3-42.4
	C77,51.1,77.1,50.5,76.9,49.9z M36,88.1l9.2-37.2c0.2-0.8-0.3-1.6-1.1-1.8c-0.1,0-0.2,0-0.4,0H28.1L64,12.9l-9.1,37.2
	c-0.2,0.8,0.3,1.6,1.1,1.8c0.1,0,0.2,0,0.4,0h15.6L36,88.1z"/>
<linearGradient id="SVGID_2_" gradientUnits="userSpaceOnUse" x1="68.5374" y1="76" x2="83.4626" y2="76">
	<stop  offset="0" style="stop-color:#554764"/>
	<stop  offset="1" style="stop-color:#ADADAD"/>
</linearGradient>
<path class="st1" d="M71.1,68.9c-0.6-0.6-1.6-0.5-2.1,0.1c-0.5,0.6-0.5,1.5,0,2l12,12c0.6,0.6,1.6,0.5,2.1-0.1c0.5-0.6,0.5-1.5,0-2
	L71.1,68.9z"/>
<linearGradient id="SVGID_3_" gradientUnits="userSpaceOnUse" x1="14.5374" y1="23.0187" x2="29.4987" y2="23.0187">
	<stop  offset="0" style="stop-color:#554764"/>
	<stop  offset="1" style="stop-color:#ADADAD"/>
</linearGradient>
<path class="st2" d="M28,30.5c0.8,0,1.5-0.7,1.5-1.5c0-0.4-0.2-0.8-0.4-1.1l-12-12c-0.6-0.6-1.6-0.5-2.1,0.1c-0.5,0.6-0.5,1.5,0,2
	l12,12C27.2,30.3,27.6,30.5,28,30.5z"/>
<linearGradient id="SVGID_4_" gradientUnits="userSpaceOnUse" x1="68.0013" y1="22.518" x2="82.9626" y2="22.518">
	<stop  offset="0" style="stop-color:#554764"/>
	<stop  offset="1" style="stop-color:#ADADAD"/>
</linearGradient>
<path class="st3" d="M68.4,29.6c0.6,0.6,1.5,0.6,2.1,0l12-12c0.6-0.6,0.5-1.6-0.1-2.1c-0.6-0.5-1.5-0.5-2,0l-12,12
	C67.9,28,67.9,29,68.4,29.6z"/>
<linearGradient id="SVGID_5_" gradientUnits="userSpaceOnUse" x1="14.9626" y1="76.5374" x2="29.9626" y2="76.5374">
	<stop  offset="0" style="stop-color:#554764"/>
	<stop  offset="1" style="stop-color:#ADADAD"/>
</linearGradient>
<path class="st4" d="M27.4,69.4l-12,12c-0.6,0.6-0.6,1.5-0.1,2.1s1.5,0.6,2.1,0.1c0,0,0.1,0,0.1-0.1l12-12c0.6-0.6,0.5-1.6-0.1-2.1
	C28.9,68.9,28,68.9,27.4,69.4z"/>
<linearGradient id="SVGID_6_" gradientUnits="userSpaceOnUse" x1="16" y1="62.5" x2="21" y2="62.5">
	<stop  offset="0" style="stop-color:#554764"/>
	<stop  offset="1" style="stop-color:#ADADAD"/>
</linearGradient>
<circle class="st5" cx="18.5" cy="62.5" r="2.5"/>
<linearGradient id="SVGID_7_" gradientUnits="userSpaceOnUse" x1="7" y1="55.5" x2="12" y2="55.5">
	<stop  offset="0" style="stop-color:#554764"/>
	<stop  offset="1" style="stop-color:#ADADAD"/>
</linearGradient>
<circle class="st6" cx="9.5" cy="55.5" r="2.5"/>
<linearGradient id="SVGID_8_" gradientUnits="userSpaceOnUse" x1="87" y1="42.5" x2="92" y2="42.5">
	<stop  offset="0" style="stop-color:#554764"/>
	<stop  offset="1" style="stop-color:#ADADAD"/>
</linearGradient>
<circle class="st7" cx="89.5" cy="42.5" r="2.5"/>
<linearGradient id="SVGID_9_" gradientUnits="userSpaceOnUse" x1="29" y1="17.5" x2="34" y2="17.5">
	<stop  offset="0" style="stop-color:#554764"/>
	<stop  offset="1" style="stop-color:#ADADAD"/>
</linearGradient>
<circle class="st8" cx="31.5" cy="17.5" r="2.5"/>
</svg>
