<?xml version="1.0" encoding="utf-8"?>
<!-- Generator: Adobe Illustrator 22.0.1, SVG Export Plug-In . SVG Version: 6.00 Build 0)  -->
<svg version="1.1" id="Слой_1" xmlns="http://www.w3.org/2000/svg" xmlns:xlink="http://www.w3.org/1999/xlink" x="0px" y="0px"
	 viewBox="0 0 100 100" style="enable-background:new 0 0 100 100;" xml:space="preserve">
<style type="text/css">
	.st0{fill:url(#SVGID_1_);}
	.st1{fill:url(#SVGID_2_);}
</style>
<title>testМонтажная область 14</title>
<linearGradient id="SVGID_1_" gradientUnits="userSpaceOnUse" x1="10.5" y1="47.5" x2="89.5" y2="47.5">
	<stop  offset="0" style="stop-color:#554764"/>
	<stop  offset="1" style="stop-color:#A3A3A3"/>
</linearGradient>
<path class="st0" d="M88,77.5h-4.5V16c0-0.8-0.7-1.5-1.5-1.5H68c-0.8,0-1.5,0.7-1.5,1.5v61.5h-8V39c0-0.8-0.7-1.5-1.5-1.5H43
	c-0.8,0-1.5,0.7-1.5,1.5v38.5h-8V61c0-0.8-0.7-1.5-1.5-1.5l0,0H18c-0.8,0-1.5,0.7-1.5,1.5l0,0v16.5H12c-0.8,0-1.5,0.7-1.5,1.5
	s0.7,1.5,1.5,1.5h76c0.8,0,1.5-0.7,1.5-1.5S88.8,77.5,88,77.5z M69.5,17.5h11v60h-11V17.5z M44.5,40.5h11v37h-11V40.5z M19.5,62.5
	h11v15h-11V62.5z"/>
<linearGradient id="SVGID_2_" gradientUnits="userSpaceOnUse" x1="11.5013" y1="26" x2="58.5" y2="26">
	<stop  offset="0" style="stop-color:#554764"/>
	<stop  offset="1" style="stop-color:#A3A3A3"/>
</linearGradient>
<path class="st1" d="M13,49.5c0.4,0,0.8-0.2,1.1-0.4L55.5,7.6V14c0,0.8,0.7,1.5,1.5,1.5s1.5-0.7,1.5-1.5V4c0-0.2,0-0.4-0.1-0.5l0,0
	c-0.2-0.4-0.4-0.7-0.8-0.8l0,0c-0.2-0.1-0.4-0.1-0.6-0.1H47c-0.8,0-1.5,0.7-1.5,1.5s0.7,1.5,1.5,1.5h6.4L11.9,46.9
	c-0.6,0.6-0.6,1.5,0,2.1C12.2,49.3,12.6,49.5,13,49.5z"/>
</svg>
