<?xml version="1.0" encoding="utf-8"?>
<!-- Generator: Adobe Illustrator 22.0.1, SVG Export Plug-In . SVG Version: 6.00 Build 0)  -->
<svg version="1.1" id="Слой_2_1_" xmlns="http://www.w3.org/2000/svg" xmlns:xlink="http://www.w3.org/1999/xlink" x="0px"
	 y="0px" viewBox="0 0 100 100" style="enable-background:new 0 0 100 100;" xml:space="preserve">
<style type="text/css">
	.st0{fill:url(#SVGID_1_);}
	.st1{fill:url(#SVGID_2_);}
</style>
<title>Монтажная область 8</title>
<linearGradient id="SVGID_1_" gradientUnits="userSpaceOnUse" x1="48" y1="17.0207" x2="68.023" y2="17.0207">
	<stop  offset="0" style="stop-color:#554764"/>
	<stop  offset="1" style="stop-color:#A3A3A3"/>
</linearGradient>
<path class="st0" d="M65.2,22.3c0.4,0.7,1.4,0.9,2.1,0.5c0.7-0.4,0.9-1.4,0.5-2.1c0,0,0-0.1-0.1-0.1c-4-6.1-10.9-9.8-18.3-9.7
	c-0.8,0-1.5,0.7-1.5,1.5s0.7,1.5,1.5,1.5C55.8,13.9,61.7,17.1,65.2,22.3z"/>
<linearGradient id="SVGID_2_" gradientUnits="userSpaceOnUse" x1="20" y1="50.75" x2="79" y2="50.75">
	<stop  offset="0" style="stop-color:#554764"/>
	<stop  offset="1" style="stop-color:#A3A3A3"/>
</linearGradient>
<path class="st1" d="M79,32.3C79,16.7,65.8,4,49.5,4S20,16.7,20,32.3c0.1,10.8,6.3,20.5,16,25.2V70h-2.5c-0.8,0-1.5,0.7-1.5,1.5v14
	c0,0.8,0.7,1.5,1.5,1.5h4.1c0.5,5.9,5.9,10.5,12.4,10.5S61.9,92.9,62.4,87h4.1c0.8,0,1.5-0.7,1.5-1.5v-14c0-0.8-0.7-1.5-1.5-1.5H63
	V57.5C72.7,52.8,78.9,43.1,79,32.3z M50,94.5c-4.9,0-8.9-3.3-9.4-7.5h18.8C58.9,91.2,54.9,94.5,50,94.5z M65,84H35V73h30V84z
	 M47.3,69.8l-3.6-35.2c3.5,2.3,8.1,2.3,11.6,0l-3.7,35.1c0,0.1,0,0.1,0,0.2h-4.3C47.3,70,47.3,69.9,47.3,69.8z M54.6,70l4.3-40.5
	C59,29,59,28.5,59,28c0-0.8-0.6-1.5-1.4-1.5c-0.8-0.1-1.5,0.5-1.6,1.3L55.9,29c-0.6,2.5-3.2,4.4-6.4,4.4s-5.8-1.9-6.4-4.4L43,27.9
	c0-0.8-0.7-1.5-1.6-1.4c-0.8,0-1.5,0.7-1.4,1.6c0,0.5,0,1,0.1,1.5L44.3,70H39V56.6c0-0.6-0.3-1.1-0.9-1.4c-9.1-4-15-13-15.1-22.9
	C23,18.4,34.9,7,49.5,7S76,18.4,76,32.3c-0.1,9.9-6,18.9-15.1,22.9C60.3,55.5,60,56,60,56.6V70H54.6z"/>
</svg>
