<?xml version="1.0" encoding="utf-8"?>
<!-- Generator: Adobe Illustrator 22.0.1, SVG Export Plug-In . SVG Version: 6.00 Build 0)  -->
<svg version="1.1" id="Слой_1" xmlns="http://www.w3.org/2000/svg" xmlns:xlink="http://www.w3.org/1999/xlink" x="0px" y="0px"
	 viewBox="0 0 100 100" style="enable-background:new 0 0 100 100;" xml:space="preserve">
<style type="text/css">
	.st0{fill:url(#SVGID_1_);stroke:url(#SVGID_2_);stroke-miterlimit:10;}
	.st1{fill:none;stroke:url(#SVGID_3_);stroke-width:4;stroke-miterlimit:10;}
</style>
<title>testМонтажная область 2</title>
<linearGradient id="SVGID_1_" gradientUnits="userSpaceOnUse" x1="8.5048" y1="47.5008" x2="84.5061" y2="47.5008">
	<stop  offset="0" style="stop-color:#554764"/>
	<stop  offset="1" style="stop-color:#ADADAD"/>
</linearGradient>
<linearGradient id="SVGID_2_" gradientUnits="userSpaceOnUse" x1="8.0048" y1="47.5008" x2="85.0061" y2="47.5008">
	<stop  offset="0" style="stop-color:#554764"/>
	<stop  offset="1" style="stop-color:#ADADAD"/>
</linearGradient>
<path class="st0" d="M84.4,34.6c-1.3-19-17.7-33.3-36.7-32c-18,1.2-32,16.2-32.1,34.2c0,1.4,0.1,2.7,0.2,4.1l-7,14.2
	c-0.9,1.9-0.1,4.1,1.7,5c0.5,0.2,1,0.4,1.5,0.4c1.9,0.1,3.2,0.1,4.2,0.1v3.8c0,11.7,2.9,18.5,17.6,18.5l6.4,0.2v8
	c0,0.8,0.7,1.5,1.5,1.5s1.5-0.7,1.5-1.5v-9.4c0-0.8-0.6-1.5-1.5-1.5L34,79.8c-11.4,0-14.6-3.5-14.6-15.5V59c0-0.8-0.7-1.5-1.5-1.5
	c0,0-0.1,0-0.1,0h-0.2c-0.3,0-1.4,0-5.3-0.1c-0.3,0-0.5-0.1-0.6-0.4c-0.1-0.2-0.1-0.5,0-0.7l7.2-14.6c0.1-0.3,0.2-0.6,0.1-0.9
	c-0.2-1.4-0.3-2.8-0.3-4.1c0-17.4,14-31.5,31.4-31.5s31.5,14,31.5,31.4c0,9-3.9,17.7-10.6,23.6c-0.3,0.3-0.5,0.7-0.5,1.1v29.4
	c0,0.8,0.6,1.5,1.5,1.5c0,0,0,0,0,0c0.8,0,1.5-0.7,1.5-1.5V62.1C81.1,55.1,85.1,45,84.4,34.6z"/>
<linearGradient id="SVGID_3_" gradientUnits="userSpaceOnUse" x1="35.3623" y1="32.913" x2="68.2976" y2="32.913">
	<stop  offset="0" style="stop-color:#554764"/>
	<stop  offset="1" style="stop-color:#ADADAD"/>
</linearGradient>
<polyline class="st1" points="36.9,31.2 47,42.6 66.8,21.7 "/>
</svg>
