<?xml version="1.0" encoding="utf-8"?>
<!-- Generator: Adobe Illustrator 22.0.1, SVG Export Plug-In . SVG Version: 6.00 Build 0)  -->
<svg version="1.1" id="Layer_1" xmlns="http://www.w3.org/2000/svg" xmlns:xlink="http://www.w3.org/1999/xlink" x="0px" y="0px"
	 viewBox="0 0 100.4 100.4" style="enable-background:new 0 0 100.4 100.4;" xml:space="preserve">
<style type="text/css">
	.st0{fill:url(#SVGID_1_);}
	.st1{fill:url(#SVGID_2_);}
	.st2{fill:url(#SVGID_3_);}
	.st3{fill:url(#SVGID_4_);}
	.st4{fill:url(#SVGID_5_);}
	.st5{fill:url(#SVGID_6_);}
</style>
<g>
	<linearGradient id="SVGID_1_" gradientUnits="userSpaceOnUse" x1="27.04" y1="62.2195" x2="71.171" y2="62.2195">
		<stop  offset="0" style="stop-color:#554764"/>
		<stop  offset="1" style="stop-color:#9E9E9E"/>
	</linearGradient>
	<path class="st0" d="M49.1,50.4C36.9,50.4,27,60.3,27,72.5c0,0.8,0.7,1.5,1.5,1.5h41.1c0.8,0,1.5-0.7,1.5-1.5
		C71.2,60.3,61.3,50.4,49.1,50.4z M30.1,71c0.8-9.8,9-17.6,19-17.6s18.2,7.8,19,17.6H30.1z"/>
	<linearGradient id="SVGID_2_" gradientUnits="userSpaceOnUse" x1="35.792" y1="35.502" x2="61.7" y2="35.502">
		<stop  offset="0" style="stop-color:#554764"/>
		<stop  offset="1" style="stop-color:#9E9E9E"/>
	</linearGradient>
	<path class="st1" d="M48.7,48.5c7.1,0,13-5.8,13-13s-5.8-13-13-13c-7.1,0-13,5.8-13,13C35.8,42.6,41.6,48.5,48.7,48.5z M48.7,25.5
		c5.5,0,10,4.5,10,10c0,5.5-4.5,10-10,10c-5.5,0-10-4.5-10-10C38.8,30,43.3,25.5,48.7,25.5z"/>
	<linearGradient id="SVGID_3_" gradientUnits="userSpaceOnUse" x1="2.992" y1="64.858" x2="29.0304" y2="64.858">
		<stop  offset="0" style="stop-color:#554764"/>
		<stop  offset="1" style="stop-color:#9E9E9E"/>
	</linearGradient>
	<path class="st2" d="M19.8,58.7c2.5,0,4.9,0.7,7,1.9c0.7,0.4,1.6,0.2,2.1-0.5c0.4-0.7,0.2-1.6-0.5-2.1c-2.6-1.5-5.5-2.3-8.5-2.3
		C10.5,55.7,3,63.2,3,72.5C3,73.3,3.7,74,4.5,74h19c0.8,0,1.5-0.7,1.5-1.5S24.3,71,23.5,71H6.1C6.8,64.1,12.7,58.7,19.8,58.7z"/>
	<linearGradient id="SVGID_4_" gradientUnits="userSpaceOnUse" x1="9.5" y1="43.305" x2="29.528" y2="43.305">
		<stop  offset="0" style="stop-color:#554764"/>
		<stop  offset="1" style="stop-color:#9E9E9E"/>
	</linearGradient>
	<path class="st3" d="M19.5,53.3c5.5,0,10-4.5,10-10s-4.5-10-10-10s-10,4.5-10,10C9.5,48.8,14,53.3,19.5,53.3z M19.5,36.3
		c3.9,0,7,3.1,7,7c0,3.9-3.1,7-7,7s-7-3.1-7-7S15.6,36.3,19.5,36.3z"/>
	<linearGradient id="SVGID_5_" gradientUnits="userSpaceOnUse" x1="69.3026" y1="64.858" x2="95.341" y2="64.858">
		<stop  offset="0" style="stop-color:#554764"/>
		<stop  offset="1" style="stop-color:#9E9E9E"/>
	</linearGradient>
	<path class="st4" d="M78.6,55.7c-3,0-5.9,0.8-8.5,2.3c-0.7,0.4-1,1.3-0.5,2.1c0.4,0.7,1.3,1,2.1,0.5c2.1-1.2,4.5-1.9,7-1.9
		c7.1,0,13,5.4,13.7,12.3H74.8c-0.8,0-1.5,0.7-1.5,1.5S74,74,74.8,74h19c0.8,0,1.5-0.7,1.5-1.5C95.3,63.2,87.8,55.7,78.6,55.7z"/>
	<linearGradient id="SVGID_6_" gradientUnits="userSpaceOnUse" x1="68.805" y1="43.305" x2="88.834" y2="43.305">
		<stop  offset="0" style="stop-color:#554764"/>
		<stop  offset="1" style="stop-color:#9E9E9E"/>
	</linearGradient>
	<path class="st5" d="M78.8,53.3c5.5,0,10-4.5,10-10s-4.5-10-10-10s-10,4.5-10,10C68.8,48.8,73.3,53.3,78.8,53.3z M78.8,36.3
		c3.9,0,7,3.1,7,7c0,3.9-3.1,7-7,7s-7-3.1-7-7C71.8,39.4,75,36.3,78.8,36.3z"/>
</g>
</svg>
