<?xml version="1.0" encoding="utf-8"?>
<!-- Generator: Adobe Illustrator 22.0.1, SVG Export Plug-In . SVG Version: 6.00 Build 0)  -->
<svg version="1.1" id="Слой_1" xmlns="http://www.w3.org/2000/svg" xmlns:xlink="http://www.w3.org/1999/xlink" x="0px" y="0px"
	 viewBox="0 0 32 32" style="enable-background:new 0 0 32 32;" xml:space="preserve">
<style type="text/css">
	.st0{fill:#563D7C;}
	.st1{fill:#FFFFFF;}
</style>
<g>
	<path class="st0" d="M1,27.1C1,29.3,2.7,31,4.9,31h22.3c2.1,0,3.9-1.7,3.9-3.9V4.9C31,2.7,29.3,1,27.1,1H4.9C2.7,1,1,2.7,1,4.9
		V27.1z"/>
	<path class="st1" d="M13.4,14.3V10h3.7c0.4,0,0.7,0,1,0.1c0.3,0.1,0.6,0.2,0.9,0.3c0.3,0.2,0.5,0.4,0.6,0.6c0.2,0.3,0.2,0.6,0.2,1
		c0,0.8-0.2,1.3-0.7,1.7c-0.5,0.3-1,0.5-1.8,0.5H13.4L13.4,14.3z M9.4,6.9v18.2h8.8c0.8,0,1.6-0.1,2.4-0.3c0.8-0.2,1.5-0.5,2.1-0.9
		c0.6-0.4,1.1-1,1.4-1.6c0.4-0.7,0.5-1.5,0.5-2.4c0-1.1-0.3-2.1-0.8-2.9s-1.4-1.4-2.5-1.7c0.8-0.4,1.4-0.9,1.8-1.5
		c0.4-0.6,0.6-1.4,0.6-2.3c0-0.8-0.1-1.6-0.4-2.1c-0.3-0.6-0.7-1-1.2-1.4c-0.5-0.3-1.1-0.6-1.8-0.8C19.6,7,18.9,6.9,18,6.9H9.4
		L9.4,6.9z M13.4,22v-5h4.4c0.9,0,1.6,0.2,2.1,0.6c0.5,0.4,0.8,1.1,0.8,2c0,0.5-0.1,0.9-0.2,1.2c-0.2,0.3-0.4,0.5-0.6,0.7
		c-0.3,0.2-0.6,0.3-0.9,0.4c-0.4,0.1-0.7,0.1-1.1,0.1H13.4L13.4,22z"/>
</g>
</svg>
