<?xml version="1.0" encoding="utf-8"?>
<!-- Generator: Adobe Illustrator 22.0.1, SVG Export Plug-In . SVG Version: 6.00 Build 0)  -->
<svg version="1.1" id="Слой_1" xmlns="http://www.w3.org/2000/svg" xmlns:xlink="http://www.w3.org/1999/xlink" x="0px" y="0px"
	 viewBox="0 0 32 32" style="enable-background:new 0 0 32 32;" xml:space="preserve">
<style type="text/css">
	.st0{fill:#E44D26;}
	.st1{fill:#F16529;}
	.st2{fill:#EBEBEB;}
	.st3{fill:#FFFFFF;}
</style>
<polyline id="polygon3028" class="st0" points="16,31.8 4.5,28.6 2,0 30,0 27.4,28.6 16,31.8 "/>
<polygon id="polygon3030" class="st1" points="16,29.4 25.3,26.8 27.4,2.3 16,2.3 "/>
<polygon id="polygon3032" class="st2" points="11,9.4 16,9.4 16,5.8 16,5.8 7.2,5.8 7.3,6.8 8.1,16.5 16,16.5 16,13 11.3,13 "/>
<polygon id="polygon3034" class="st2" points="11.8,18.2 9.9,18.2 8.3,18.2 8.8,23.7 16,25.7 16,25.7 16,22.1 16,22.1 12.1,21 "/>
<polygon id="polygon3044" class="st3" points="16,16.5 20.3,16.5 19.9,21 16,22.1 16,25.7 23.2,23.7 23.2,23.1 24,13.9 24.1,13 
	23.2,13 16,13 "/>
<polygon id="polygon3046" class="st3" points="16,9.3 16,9.4 24.4,9.4 24.4,9.4 24.4,9.4 24.5,8.6 24.7,6.8 24.8,5.8 16,5.8 16,8 
	"/>
</svg>
