<?xml version="1.0" encoding="utf-8"?>
<!-- Generator: Adobe Illustrator 22.0.1, SVG Export Plug-In . SVG Version: 6.00 Build 0)  -->
<svg version="1.1" id="Слой_1" xmlns="http://www.w3.org/2000/svg" xmlns:xlink="http://www.w3.org/1999/xlink" x="0px" y="0px"
	 viewBox="0 0 32 32" style="enable-background:new 0 0 32 32;" xml:space="preserve">
<style type="text/css">
	.st0{fill:#092E20;}
	.st1{fill:#FFFFFF;}
	.st2{display:none;fill:#092E20;}
</style>
<path class="st0" d="M40.3,23.8c0,1.4-1.3,2.7-2.7,2.7H-4.7c-1.4,0-2.7-1.3-2.7-2.7V8.7c0-1.4,1.3-2.7,2.7-2.7h42.3
	c1.4,0,2.7,1.3,2.7,2.7V23.8z"/>
<g>
	<g>
		<path class="st1" d="M1,9.2h2.2v10.5c-1.1,0.2-2,0.3-3,0.3C-2.6,20-4,18.8-4,16.4c0-2.4,1.6-3.8,3.9-3.8c0.3,0,0.6,0,0.9,0.2
			L1,9.2L1,9.2z M1,14.5c-0.3-0.2-0.5-0.2-0.8-0.2c-1.1,0-1.7,0.6-1.7,1.9s0.6,1.9,1.7,1.9c0.3,0,0.5,0,0.8,0C1,18.1,1,14.5,1,14.5z
			"/>
		<path class="st1" d="M6.8,12.8V18c0,1.7-0.2,2.7-0.5,3.4s-0.8,1.1-1.9,1.7l-2-0.9c0.9-0.5,1.4-0.9,1.7-1.6
			c0.3-0.6,0.5-1.4,0.5-3.3V13h2.2V12.8z M4.6,9.2h2.2v2.4H4.6V9.2z"/>
		<path class="st1" d="M8.2,13.3c0.9-0.5,1.9-0.6,3-0.6s1.9,0.3,2.2,0.9c0.2,0.3,0.3,0.8,0.3,1.7v4.5c-0.9,0.2-2.4,0.3-3.3,0.3
			c-1.9,0-2.7-0.6-2.7-2.2c0-1.6,1.1-2.4,3.9-2.5V15c0-0.5-0.2-0.6-0.8-0.6c-0.8,0-1.7,0.2-2.7,0.6V13.3L8.2,13.3z M11.6,16.9
			c-1.6,0.2-2,0.3-2,0.9c0,0.5,0.3,0.6,0.9,0.6c0.3,0,0.6,0,1.1-0.2V16.9L11.6,16.9z"/>
		<path class="st1" d="M14.8,13.1c1.3-0.3,2.4-0.5,3.6-0.5c1.1,0,2,0.3,2.5,0.8c0.3,0.5,0.5,0.9,0.5,2v4.4h-2.2v-4.4
			c0-0.9-0.3-1.3-1.1-1.3c-0.3,0-0.6,0-1.1,0.2v5.3h-2.2L14.8,13.1L14.8,13.1z"/>
		<path class="st1" d="M22.3,21.1c0.8,0.5,1.6,0.6,2.4,0.6c1.4,0,2-0.6,2-2l0,0c-0.5,0.2-0.9,0.3-1.4,0.3c-2,0-3.3-1.3-3.3-3.3
			c0-2.5,1.9-4.1,5.2-4.1c0.9,0,1.9,0.2,3,0.3l-0.8,1.6c-0.6-0.2,0,0-0.5,0v0.2v0.9v1.3c0,0.3,0,0.6,0,0.9c0,0.3,0,0.5,0,0.6
			c0,1.9-0.2,2.8-0.6,3.6c-0.6,1.1-1.9,1.6-3.6,1.6c-0.9,0-1.6-0.2-2.4-0.5V21.1L22.3,21.1z M26.7,14.4L26.7,14.4h-0.2
			c-0.5,0-0.9,0.2-1.3,0.3c-0.5,0.3-0.8,0.9-0.8,1.7c0,1.1,0.6,1.7,1.6,1.7c0.3,0,0.6,0,0.8-0.2v-0.2v-0.6c0-0.3,0-0.6,0-0.9v-1.1
			v-0.8H26.7L26.7,14.4z"/>
		<path class="st1" d="M33.6,12.5c2.2,0,3.6,1.4,3.6,3.8S35.8,20,33.4,20c-2.2,0-3.6-1.4-3.6-3.8C30,14,31.4,12.5,33.6,12.5z
			 M33.6,18.3c0.9,0,1.4-0.8,1.4-2s-0.5-2-1.4-2s-1.4,0.8-1.4,2S32.8,18.3,33.6,18.3z"/>
	</g>
</g>
<circle class="st2" cx="16" cy="16" r="15"/>
</svg>
