<?xml version="1.0" encoding="utf-8"?>
<!-- Generator: Adobe Illustrator 22.0.1, SVG Export Plug-In . SVG Version: 6.00 Build 0)  -->
<svg version="1.1" id="Слой_1" xmlns="http://www.w3.org/2000/svg" xmlns:xlink="http://www.w3.org/1999/xlink" x="0px" y="0px"
	 viewBox="0 0 32 32" style="enable-background:new 0 0 32 32;" xml:space="preserve">
<style type="text/css">
	.st0{fill:#264DE4;}
	.st1{fill:#2965F1;}
	.st2{fill:#EBEBEB;}
	.st3{fill:#FFFFFF;}
</style>
<polyline id="polygon2989" class="st0" points="16.2,31.2 5,28.1 2.5,0 30,0 27.5,28.1 16.2,31.2 "/>
<polygon id="polygon2991" class="st1" points="25.3,26.3 27.5,2.3 16.2,2.3 16.2,28.9 "/>
<polygon id="polygon2993" class="st2" points="8.2,12.7 8.5,16.2 16.2,16.2 16.2,12.7 "/>
<polygon id="polygon2995" class="st2" points="7.6,5.7 7.9,9.2 16.2,9.2 16.2,5.7 16.2,5.7 "/>
<polygon id="polygon2997" class="st2" points="16.2,21.7 16.2,21.7 12.4,20.7 12.1,17.9 10.3,17.9 8.7,17.9 9.1,23.3 16.2,25.3 
	16.2,25.3 "/>
<polygon id="polygon3005" class="st3" points="24.2,12.7 24.9,5.7 16.2,5.7 16.2,9.2 21.1,9.2 20.8,12.7 16.2,12.7 16.2,16.2 
	20.5,16.2 20.1,20.6 16.2,21.7 16.2,25.3 23.3,23.3 23.3,22.7 24.1,13.7 "/>
</svg>
