<?xml version="1.0" encoding="utf-8"?>
<!-- Generator: Adobe Illustrator 22.0.1, SVG Export Plug-In . SVG Version: 6.00 Build 0)  -->
<svg version="1.1" id="Слой_1" xmlns="http://www.w3.org/2000/svg" xmlns:xlink="http://www.w3.org/1999/xlink" x="0px" y="0px"
	 viewBox="0 0 32 32" style="enable-background:new 0 0 32 32;" xml:space="preserve">
<style type="text/css">
	.st0{fill:#F7DF1E;}
</style>
<g>
	<path class="st0" d="M1,0h30v30H1V0z"/>
	<path d="M8.9,25.1l2.3-1.4c0.4,0.8,0.8,1.4,1.8,1.4c0.9,0,1.5-0.4,1.5-1.8v-9.6h2.8v9.6c0,2.9-1.7,4.2-4.2,4.2
		C10.9,27.6,9.6,26.5,8.9,25.1"/>
	<path d="M18.9,24.8l2.3-1.3c0.6,1,1.4,1.7,2.8,1.7c1.2,0,1.9-0.6,1.9-1.4c0-1-0.8-1.3-2.1-1.9l-0.7-0.3c-2-0.9-3.4-2-3.4-4.2
		c0-2.1,1.6-3.7,4.1-3.7c1.8,0,3.1,0.6,4,2.3l-2.2,1.4c-0.5-0.9-1-1.2-1.8-1.2c-0.8,0-1.3,0.5-1.3,1.2c0,0.8,0.5,1.2,1.7,1.7
		l0.7,0.3c2.4,1,3.7,2.1,3.7,4.4c0,2.5-2,3.9-4.7,3.9C21.4,27.6,19.7,26.4,18.9,24.8"/>
</g>
</svg>
