<?xml version="1.0" encoding="utf-8"?>
<!-- Generator: Adobe Illustrator 22.0.1, SVG Export Plug-In . SVG Version: 6.00 Build 0)  -->
<svg version="1.1" id="Слой_1" xmlns="http://www.w3.org/2000/svg" xmlns:xlink="http://www.w3.org/1999/xlink" x="0px" y="0px"
	 viewBox="0 0 32 32" style="enable-background:new 0 0 32 32;" xml:space="preserve">
<style type="text/css">
	.st0{display:none;fill:#092E20;}
	.st1{fill:#464342;}
	.st2{fill:#FFFFFF;}
	.st3{fill:none;stroke:#464342;stroke-miterlimit:10;}
</style>
<circle class="st0" cx="16" cy="16" r="15"/>
<g transform="matrix(1.0755 0 0 1.0755 -3.5103 -1.6684)">
	<path class="st1" d="M18.1,4.4c3.1,0,6,1.2,8.1,3.2c-1,0-2.1,0.6-2.1,2c-0.1,2.9,3.4,3.5,1.5,9.3l-1.6,4.8L19.8,11
		c-0.1-0.2,0-0.3,0.3-0.3h1.2c0.1,0,0.1-0.1,0.1-0.1V9.9c0-0.1-0.1-0.1-0.1-0.1c-2.3,0.1-4.6,0.1-6.8,0c-0.1,0-0.1,0.1-0.1,0.1v0.7
		c0,0.1,0.1,0.1,0.1,0.1h1.2c0.3,0,0.3,0.1,0.4,0.3l1.8,4.8l-2.6,8L10.8,11c-0.1-0.2,0-0.3,0.2-0.3h1.4c0.1,0,0.1-0.1,0.1-0.1V9.9
		c0-0.1-0.1-0.1-0.1-0.1c-1.5,0.1-2.9,0.1-4.3,0.1C10.2,6.6,13.9,4.4,18.1,4.4L18.1,4.4L18.1,4.4z M28.7,10.7
		c0.9,1.7,1.4,3.6,1.4,5.7c0,4.5-2.5,8.5-6.2,10.5l3.7-10.6C28.2,14.7,28.8,12.5,28.7,10.7L28.7,10.7L28.7,10.7z M22.2,27.7
		c-1.3,0.4-2.6,0.7-4,0.7c-1.2,0-2.4-0.2-3.5-0.5l3.7-10.6L22.2,27.7L22.2,27.7L22.2,27.7z M13,27.2C9,25.3,6.1,21.2,6.1,16.4
		c0-1.8,0.4-3.5,1.1-5L13,27.2L13,27.2L13,27.2z M18.1,3.3c7.2,0,13.1,5.9,13.1,13.1s-5.9,13.1-13.1,13.1S5,23.6,5,16.4
		S10.9,3.3,18.1,3.3z M18.1,2.5c7.7,0,13.9,6.2,13.9,13.9s-6.2,13.9-13.9,13.9S4.2,24.1,4.2,16.4S10.4,2.5,18.1,2.5L18.1,2.5z"/>
</g>
<g transform="matrix(1.0755 0 0 1.0755 -3.5103 -1.6684)">
	<path class="st2" d="M18.1,4.4c3.1,0,6,1.2,8.1,3.2c-1,0-2.1,0.6-2.1,2c-0.1,2.9,3.4,3.5,1.5,9.3l-1.6,4.8L19.8,11
		c-0.1-0.2,0-0.3,0.3-0.3h1.2c0.1,0,0.1-0.1,0.1-0.1V9.9c0-0.1-0.1-0.1-0.1-0.1c-2.3,0.1-4.6,0.1-6.8,0c-0.1,0-0.1,0.1-0.1,0.1v0.7
		c0,0.1,0.1,0.1,0.1,0.1h1.2c0.3,0,0.3,0.1,0.4,0.3l1.8,4.8l-2.6,8L10.8,11c-0.1-0.2,0-0.3,0.2-0.3h1.4c0.1,0,0.1-0.1,0.1-0.1V9.9
		c0-0.1-0.1-0.1-0.1-0.1c-1.5,0.1-2.9,0.1-4.3,0.1C10.2,6.6,13.9,4.4,18.1,4.4L18.1,4.4L18.1,4.4z M28.7,10.7
		c0.9,1.7,1.4,3.6,1.4,5.7c0,4.5-2.5,8.5-6.2,10.5l3.7-10.6C28.2,14.7,28.8,12.5,28.7,10.7L28.7,10.7L28.7,10.7z M22.2,27.7
		c-1.3,0.4-2.6,0.7-4,0.7c-1.2,0-2.4-0.2-3.5-0.5l3.7-10.6L22.2,27.7L22.2,27.7L22.2,27.7z M13,27.2C9,25.3,6.1,21.2,6.1,16.4
		c0-1.8,0.4-3.5,1.1-5L13,27.2L13,27.2L13,27.2z M18.1,3.3c7.2,0,13.1,5.9,13.1,13.1s-5.9,13.1-13.1,13.1S5,23.6,5,16.4
		S10.9,3.3,18.1,3.3z M18.1,2.5c7.7,0,13.9,6.2,13.9,13.9s-6.2,13.9-13.9,13.9S4.2,24.1,4.2,16.4S10.4,2.5,18.1,2.5L18.1,2.5z"/>
</g>
<path class="st1" d="M10.5,27.6C6.1,25.6,3.1,21.1,3.1,16c0-1.9,0.4-3.7,1.2-5.3L10.5,27.6L10.5,27.6L10.5,27.6z"/>
<path class="st1" d="M16,3.1c3.4,0,6.4,1.3,8.7,3.4c-1.1,0-2.2,0.6-2.3,2.2c-0.1,3.1,3.7,3.8,1.7,10l-1.7,5.2l-4.6-13.6
	c-0.1-0.2,0-0.3,0.3-0.3h1.3c0.1,0,0.1-0.1,0.1-0.1V9c0-0.1-0.1-0.1-0.1-0.1C16.9,9,14.4,9,12,8.8c-0.1,0-0.1,0.1-0.1,0.1v0.8
	c0,0.1,0.1,0.1,0.1,0.1h1.3c0.3,0,0.4,0.1,0.4,0.3l1.9,5.2l-2.8,8.6L8.1,10.1C8,10,8.1,9.9,8.3,9.9h1.5c0.1,0,0.1-0.1,0.1-0.1V9
	c0-0.1-0.1-0.1-0.1-0.1C8.2,8.9,6.6,8.9,5.2,9C7.5,5.4,11.5,3.1,16,3.1L16,3.1L16,3.1z"/>
<path class="st1" d="M20.3,28.1c-1.4,0.5-2.8,0.7-4.3,0.7c-1.3,0-2.6-0.2-3.8-0.6l4-11.4L20.3,28.1L20.3,28.1L20.3,28.1z"/>
<path class="st1" d="M27.3,9.8c1,1.8,1.6,3.9,1.6,6.1c0,4.9-2.7,9.1-6.7,11.3l4-11.4C26.8,14.1,27.4,11.8,27.3,9.8L27.3,9.8
	L27.3,9.8z"/>
<circle class="st3" cx="16" cy="16" r="15"/>
</svg>
