<?xml version="1.0" encoding="utf-8"?>
<!-- Generator: Adobe Illustrator 22.0.1, SVG Export Plug-In . SVG Version: 6.00 Build 0)  -->
<svg version="1.1" id="Layer_1" xmlns="http://www.w3.org/2000/svg" xmlns:xlink="http://www.w3.org/1999/xlink" x="0px" y="0px"
	 viewBox="0 0 26 26" style="enable-background:new 0 0 26 26;" xml:space="preserve">
<style type="text/css">
	.st0{fill:url(#SVGID_1_);}
	.st1{fill:url(#SVGID_2_);}
</style>
<g>
	<linearGradient id="SVGID_1_" gradientUnits="userSpaceOnUse" x1="0.1991" y1="4.8832" x2="25.7477" y2="4.8832">
		<stop  offset="0" style="stop-color:#FFFFFF"/>
		<stop  offset="3.578349e-03" style="stop-color:#FCFCFD;stop-opacity:0.9978"/>
		<stop  offset="6.671963e-02" style="stop-color:#D0CCD4;stop-opacity:0.9588"/>
		<stop  offset="0.1318" style="stop-color:#AAA3B2;stop-opacity:0.9186"/>
		<stop  offset="0.1978" style="stop-color:#8B8296;stop-opacity:0.8778"/>
		<stop  offset="0.2651" style="stop-color:#746880;stop-opacity:0.8363"/>
		<stop  offset="0.3342" style="stop-color:#625670;stop-opacity:0.7936"/>
		<stop  offset="0.4062" style="stop-color:#584B67;stop-opacity:0.7491"/>
		<stop  offset="0.4858" style="stop-color:#554764;stop-opacity:0.7"/>
		<stop  offset="0.5469" style="stop-color:#5A4D69;stop-opacity:0.7357"/>
		<stop  offset="0.6246" style="stop-color:#695C76;stop-opacity:0.781"/>
		<stop  offset="0.7113" style="stop-color:#81768C;stop-opacity:0.8316"/>
		<stop  offset="0.8045" style="stop-color:#A29BAB;stop-opacity:0.8859"/>
		<stop  offset="0.9023" style="stop-color:#CDC9D2;stop-opacity:0.943"/>
		<stop  offset="1" style="stop-color:#FFFFFF"/>
	</linearGradient>
	<path class="st0" d="M25.7,1.8c0,0,0.3-0.7-0.2-1.2c-0.4-0.4-1.2-0.5-1.9-0.2c-3.4,2.2-6.8,4.5-10.2,6.7c-0.1,0-0.2,0.1-0.4,0.1
		c-0.2,0-0.4-0.1-0.4-0.1C9.2,4.9,5.8,2.7,2.4,0.5C1.7,0,0.8,0.1,0.4,0.5c-0.3,0.3-0.3,0.8,0,1.3c6.4,4.3,11.2,7.4,11.8,7.7
		C12.6,9.6,13,9.6,13,9.6c0,0,0.4,0,0.9-0.2C14.5,9.2,19.2,6.1,25.7,1.8z"/>
	<linearGradient id="SVGID_2_" gradientUnits="userSpaceOnUse" x1="0.125" y1="11.9547" x2="25.875" y2="11.9547">
		<stop  offset="0" style="stop-color:#FFFFFF"/>
		<stop  offset="3.578349e-03" style="stop-color:#FCFCFD;stop-opacity:0.9978"/>
		<stop  offset="6.671963e-02" style="stop-color:#D0CCD4;stop-opacity:0.9588"/>
		<stop  offset="0.1318" style="stop-color:#AAA3B2;stop-opacity:0.9186"/>
		<stop  offset="0.1978" style="stop-color:#8B8296;stop-opacity:0.8778"/>
		<stop  offset="0.2651" style="stop-color:#746880;stop-opacity:0.8363"/>
		<stop  offset="0.3342" style="stop-color:#625670;stop-opacity:0.7936"/>
		<stop  offset="0.4062" style="stop-color:#584B67;stop-opacity:0.7491"/>
		<stop  offset="0.4858" style="stop-color:#554764;stop-opacity:0.7"/>
		<stop  offset="0.5469" style="stop-color:#5A4D69;stop-opacity:0.7357"/>
		<stop  offset="0.6246" style="stop-color:#695C76;stop-opacity:0.781"/>
		<stop  offset="0.7113" style="stop-color:#81768C;stop-opacity:0.8316"/>
		<stop  offset="0.8045" style="stop-color:#A29BAB;stop-opacity:0.8859"/>
		<stop  offset="0.9023" style="stop-color:#CDC9D2;stop-opacity:0.943"/>
		<stop  offset="1" style="stop-color:#FFFFFF"/>
	</linearGradient>
	<path class="st1" d="M25.7,8.9c0.3-0.4,0.3-1,0-1.3c-0.4-0.5-1.4-0.6-2,0c-3.4,2.3-6.8,4.6-10.2,6.9c-0.1,0-0.2,0.1-0.5,0.1
		c-0.2,0-0.4-0.1-0.4-0.1C9.1,12.1,5.8,9.8,2.4,7.5C1.7,6.9,0.7,7,0.3,7.5C0,7.9,0.1,8.4,0.4,8.9c6.4,4.5,11.3,7.6,11.9,7.8
		c0.4,0.1,0.8,0.1,0.8,0.1s0.4,0,0.8-0.1C14.4,16.4,19.2,13.3,25.7,8.9z"/>
</g>
</svg>
